<?xml version="1.0" standalone="no"?>
<!DOCTYPE svg PUBLIC "-//W3C//DTD SVG 20010904//EN"
 "http://www.w3.org/TR/2001/REC-SVG-20010904/DTD/svg10.dtd">
<svg version="1.0" xmlns="http://www.w3.org/2000/svg"
 width="1920.000000pt" height="1080.000000pt" viewBox="0 0 1920.000000 1080.000000"
 preserveAspectRatio="xMidYMid meet">

<g transform="translate(0.000000,1080.000000) scale(0.100000,-0.100000)"
fill="#000000" stroke="none">
<path d="M9543 5940 c-60 -35 -78 -64 -85 -138 -4 -44 -2 -54 13 -62 43 -24
67 23 29 58 -20 18 -20 19 -1 36 18 17 21 16 59 -3 22 -11 41 -18 43 -16 3 2
14 -4 27 -13 22 -17 21 -17 -23 -14 -35 3 -46 0 -52 -13 -10 -27 10 -49 48
-52 45 -4 50 -12 37 -56 -13 -43 -48 -82 -48 -54 0 10 -11 19 -26 23 -21 5
-23 9 -11 15 16 9 13 44 -6 56 -6 4 -8 0 -4 -10 5 -13 0 -17 -22 -17 -60 0
-67 -54 -11 -82 39 -20 46 -41 13 -46 -22 -3 -57 34 -47 50 3 4 0 8 -5 8 -6 0
-11 9 -11 20 0 11 -4 20 -9 20 -10 0 -15 -16 -40 -130 -11 -47 -33 -122 -50
-168 -28 -77 -48 -155 -57 -227 -6 -46 7 -218 16 -208 4 4 10 17 13 28 6 24
11 -44 8 -94 -4 -50 16 -29 23 26 4 27 16 80 26 118 10 39 21 90 24 115 7 46
10 54 61 145 15 28 37 67 48 88 10 20 23 37 28 37 5 0 9 7 9 15 0 18 24 20 42
2 7 -7 28 -20 46 -28 17 -7 32 -19 32 -25 0 -7 8 -14 19 -17 10 -2 20 -16 23
-30 6 -32 0 -41 -19 -25 -11 9 -12 7 -7 -8 12 -34 44 -108 55 -128 6 -11 13
-43 14 -73 3 -41 0 -53 -11 -53 -8 0 -14 -4 -14 -10 0 -24 -20 -7 -21 18 -1
20 -2 22 -6 7 -9 -35 -43 -63 -43 -34 0 5 5 7 10 4 6 -3 10 -2 10 4 0 5 -6 14
-14 18 -7 4 -16 15 -19 23 -3 8 -5 -2 -4 -23 1 -41 27 -70 53 -60 8 3 14 1 14
-5 0 -6 -4 -12 -9 -14 -4 -1 -11 -14 -15 -28 -6 -20 -5 -22 4 -10 9 11 13 12
17 2 2 -6 9 -10 14 -6 5 3 9 -2 9 -10 0 -9 -7 -16 -15 -16 -8 0 -15 -4 -15
-10 0 -5 7 -7 15 -4 16 7 32 -37 19 -57 -4 -7 -3 -10 3 -6 6 4 13 29 17 57 14
102 36 105 36 4 0 -56 -2 -64 -19 -64 -16 0 -19 -7 -18 -39 2 -36 17 -49 17
-15 0 12 2 12 14 2 8 -7 12 -16 10 -19 -1 -3 3 -17 10 -31 12 -22 12 -28 -3
-43 -15 -16 -15 -17 7 -6 20 10 22 9 22 -11 0 -19 -2 -20 -10 -8 -8 13 -10 12
-10 -3 0 -12 10 -20 31 -24 26 -5 30 -9 25 -29 -4 -13 -2 -24 3 -24 11 0 1
-84 -10 -88 -5 -2 -6 -15 -3 -29 5 -19 4 -24 -5 -18 -9 5 -12 -1 -10 -21 1
-16 -1 -36 -4 -44 -4 -8 -5 -24 -4 -35 1 -12 -3 -19 -11 -17 -9 2 -10 -3 -4
-15 6 -10 11 -58 13 -108 3 -71 1 -89 -9 -87 -8 1 -11 -2 -7 -8 4 -7 12 -7 25
0 16 8 18 8 14 -5 -4 -8 -10 -15 -15 -15 -5 0 -9 -5 -9 -12 0 -6 9 -3 20 7 11
10 23 15 28 10 4 -4 1 -10 -6 -12 -6 -3 -9 -10 -5 -16 13 -20 12 -41 0 -49 -8
-5 -8 -8 -1 -8 7 0 10 -14 8 -35 -1 -23 3 -38 12 -43 9 -5 16 -16 18 -26 1
-10 9 -21 16 -26 8 -5 11 -13 6 -17 -5 -4 -11 -2 -13 5 -3 6 -13 12 -23 12 -9
0 -23 7 -30 15 -7 8 -18 15 -24 15 -6 0 -3 -7 6 -14 10 -7 14 -17 10 -21 -4
-5 -2 -5 5 -1 7 3 14 -2 18 -14 4 -11 11 -18 16 -15 5 4 9 3 9 -2 0 -4 17 -9
39 -11 32 -2 40 1 44 18 3 11 1 20 -4 20 -16 0 -9 39 9 49 16 10 16 10 0 11
-11 0 -18 8 -18 20 0 11 -7 20 -15 20 -8 0 -15 5 -15 10 0 6 7 10 15 10 8 0
15 8 15 18 0 10 5 23 12 30 9 9 8 12 -5 12 -18 0 -21 21 -8 55 5 11 5 30 0 43
-6 14 -5 22 2 22 6 0 9 6 6 13 -2 6 4 21 15 33 18 20 18 27 7 112 -10 82 -9
103 11 214 12 68 24 145 27 172 l6 49 -48 -7 -47 -8 8 54 c14 81 6 271 -16
388 -25 139 -42 247 -45 290 -4 59 -41 230 -82 387 -34 127 -164 180 -280 113z
m87 -175 c0 -2 -9 -3 -19 -2 -11 0 -18 5 -15 9 4 6 34 0 34 -7z m-130 -105 c0
-5 -5 -10 -11 -10 -5 0 -7 5 -4 10 3 6 8 10 11 10 2 0 4 -4 4 -10z m380 -1029
c0 -12 -20 -25 -27 -18 -7 7 6 27 18 27 5 0 9 -4 9 -9z m30 -50 c0 -6 -4 -13
-10 -16 -5 -3 -10 1 -10 9 0 9 5 16 10 16 6 0 10 -4 10 -9z m25 -641 c3 -5 1
-10 -4 -10 -6 0 -11 5 -11 10 0 6 2 10 4 10 3 0 8 -4 11 -10z m-21 -26 c3 -8
2 -12 -4 -9 -6 3 -10 10 -10 16 0 14 7 11 14 -7z m51 -93 c3 -5 1 -12 -5 -16
-5 -3 -10 1 -10 9 0 18 6 21 15 7z"/>
<path d="M9640 5323 c0 -15 29 -49 30 -35 0 7 -7 20 -15 28 -8 9 -15 11 -15 7z"/>
<path d="M9581 5297 c-13 -21 -12 -21 5 -5 10 10 16 20 13 22 -3 3 -11 -5 -18
-17z"/>
<path d="M9454 5000 c3 -14 6 -33 6 -43 0 -11 4 -15 11 -11 8 5 10 -1 7 -20
-7 -35 7 -42 33 -17 21 19 21 19 1 25 -20 7 -39 36 -23 36 5 0 11 -4 13 -9 2
-5 12 -3 23 6 16 13 17 15 3 10 -10 -4 -18 -2 -18 3 0 6 -9 10 -20 10 -10 0
-24 8 -30 18 -10 14 -11 13 -6 -8z"/>
<path d="M9545 4994 c21 -15 49 -19 41 -5 -3 5 -18 11 -33 14 -26 5 -26 4 -8
-9z"/>
<path d="M9545 4960 c-11 -5 -14 -9 -7 -9 7 -1 12 -14 12 -33 0 -17 2 -29 5
-27 4 5 16 80 12 78 -1 0 -11 -4 -22 -9z"/>
<path d="M9291 4763 c1 -34 2 -35 8 -11 4 20 10 25 20 19 12 -8 12 -22 3 -83
-8 -55 -10 -60 -8 -22 2 31 -1 51 -8 51 -6 0 -33 4 -61 8 l-50 8 28 -23 c27
-22 28 -23 26 -130 -1 -82 3 -120 16 -154 10 -26 21 -46 26 -46 5 0 6 -7 3
-15 -4 -8 -1 -15 6 -15 10 0 10 -3 0 -15 -7 -9 -10 -18 -6 -22 3 -3 6 -1 6 5
0 25 16 11 17 -15 1 -16 -1 -23 -3 -16 -10 23 -34 1 -34 -30 0 -17 -3 -27 -7
-24 -3 4 -15 0 -25 -10 -12 -10 -18 -12 -18 -4 0 7 -5 9 -11 6 -7 -5 -5 -15 6
-32 9 -14 14 -27 11 -30 -3 -3 -1 -14 5 -24 6 -13 6 -19 -1 -19 -5 0 -10 -4
-10 -10 0 -5 8 -6 17 -3 13 5 15 3 8 -13 -4 -10 -8 -28 -9 -39 0 -11 -5 -23
-11 -27 -5 -4 2 -8 16 -8 18 0 28 -6 32 -20 6 -24 22 -26 31 -4 4 10 2 13 -6
8 -8 -5 -9 0 -5 17 4 13 7 27 7 32 0 4 7 7 16 7 12 0 15 7 12 25 -3 16 -1 25
7 25 13 0 22 34 28 98 1 17 -1 32 -5 32 -5 0 -8 15 -8 33 0 18 -5 38 -12 45
-9 9 -9 12 1 12 10 0 9 6 -3 25 -14 22 -16 48 -13 178 3 97 10 169 20 200 8
26 11 49 7 52 -5 3 -10 0 -12 -7 -3 -9 -9 -8 -22 5 -27 26 -36 21 -35 -20z
m16 -225 c-3 -7 -5 -2 -5 12 0 14 2 19 5 13 2 -7 2 -19 0 -25z m-22 -497 c-3
-6 -11 -11 -17 -11 -6 0 -6 6 2 15 14 17 26 13 15 -4z"/>
<path d="M9476 4782 c-8 -13 -4 -92 4 -87 8 5 13 95 5 95 -2 0 -6 -4 -9 -8z"/>
<path d="M9661 4777 c-8 -10 -7 -14 4 -14 8 0 15 6 15 14 0 7 -2 13 -4 13 -2
0 -9 -6 -15 -13z"/>
<path d="M9426 4765 c-3 -8 -1 -15 4 -15 6 0 10 7 10 15 0 8 -2 15 -4 15 -2 0
-6 -7 -10 -15z"/>
<path d="M9551 4754 c0 -11 3 -14 6 -6 3 7 2 16 -1 19 -3 4 -6 -2 -5 -13z"/>
<path d="M9638 4740 c-3 -8 2 -27 10 -42 9 -15 12 -31 8 -35 -5 -4 -11 -2 -13
5 -3 6 -9 10 -13 7 -5 -3 -7 -11 -4 -18 3 -8 -6 -25 -19 -39 l-25 -26 27 -7
c22 -6 23 -8 9 -16 -25 -14 -12 -34 22 -37 33 -3 38 8 15 28 -8 7 -15 19 -15
26 0 8 7 14 15 14 8 0 15 7 15 15 0 13 -4 14 -20 5 -26 -14 -26 -3 -1 18 26
22 40 92 18 92 -8 0 -17 6 -19 13 -3 8 -6 8 -10 -3z"/>
<path d="M9420 4724 c0 -8 5 -12 10 -9 6 3 10 10 10 16 0 5 -4 9 -10 9 -5 0
-10 -7 -10 -16z"/>
<path d="M9549 4713 c-4 -58 -7 -85 -13 -90 -3 -3 -1 -14 5 -24 8 -15 6 -17
-7 -12 -13 5 -15 3 -6 -13 16 -29 18 -70 5 -85 -8 -10 -9 -20 -3 -29 8 -12 10
-12 10 3 0 10 3 16 8 14 4 -3 8 53 10 124 2 71 1 129 -2 129 -3 0 -6 -8 -7
-17z"/>
<path d="M9741 4677 c2 -1 13 -9 24 -17 19 -14 19 -14 6 3 -7 9 -18 17 -24 17
-6 0 -8 -1 -6 -3z"/>
<path d="M9477 4655 c-4 -11 -3 -40 1 -65 10 -58 19 -31 12 35 -4 36 -7 45
-13 30z"/>
<path d="M9405 4630 c3 -5 8 -10 11 -10 2 0 4 5 4 10 0 6 -5 10 -11 10 -5 0
-7 -4 -4 -10z"/>
<path d="M9728 4591 c-14 -16 -14 -20 -2 -25 9 -3 14 1 14 14 0 10 8 21 18 23
13 4 13 5 2 6 -9 0 -23 -8 -32 -18z"/>
<path d="M9617 4499 c-3 -12 -9 -19 -14 -16 -4 3 -9 -8 -10 -24 -1 -16 2 -29
8 -29 6 0 7 6 3 13 -5 8 -3 8 7 -1 12 -11 11 -16 -6 -28 -20 -15 -24 -41 -14
-85 4 -14 3 -33 -2 -42 -7 -11 -4 -19 8 -26 10 -6 14 -11 8 -11 -10 0 -11
-126 -3 -358 2 -70 0 -92 -10 -92 -10 0 -10 -5 -2 -20 10 -18 7 -24 -11 -22
-4 1 -5 -8 -2 -18 3 -11 9 -20 12 -20 10 0 1 -59 -11 -66 -5 -3 -8 10 -6 30 1
19 -1 38 -5 42 -4 4 -7 -14 -7 -39 l0 -47 100 0 c105 0 129 11 58 26 -34 7
-44 14 -46 32 -2 15 2 22 12 22 17 0 22 16 6 22 -5 2 -11 20 -12 40 -2 21 -6
38 -9 38 -6 0 -11 66 -10 135 0 16 -5 33 -12 37 -7 5 2 8 23 9 l35 1 -30 8
c-16 4 -24 8 -17 9 17 2 15 21 -3 21 -15 0 -21 21 -9 32 3 3 6 89 7 190 2 152
-1 185 -13 196 -13 10 -13 14 5 27 17 14 18 17 5 25 -22 14 -27 12 -33 -11z"/>
<path d="M9520 4360 c0 -5 5 -10 10 -10 6 0 10 5 10 10 0 6 -4 10 -10 10 -5 0
-10 -4 -10 -10z"/>
<path d="M9521 4324 c0 -11 3 -14 6 -6 3 7 2 16 -1 19 -3 4 -6 -2 -5 -13z"/>
<path d="M9480 4300 c-20 -12 -10 -19 14 -10 11 3 15 9 10 13 -6 3 -16 2 -24
-3z"/>
<path d="M9538 4301 c-13 -4 -15 -10 -8 -21 9 -13 10 -13 10 0 0 13 1 13 10 0
11 -18 20 -10 11 11 -4 10 -12 14 -23 10z"/>
<path d="M9730 4290 c-13 -8 -12 -10 3 -10 9 0 17 5 17 10 0 12 -1 12 -20 0z"/>
<path d="M9551 4224 c0 -11 3 -14 6 -6 3 7 2 16 -1 19 -3 4 -6 -2 -5 -13z"/>
<path d="M9450 4009 c0 -5 5 -7 10 -4 6 3 10 8 10 11 0 2 -4 4 -10 4 -5 0 -10
-5 -10 -11z"/>
<path d="M9476 4005 c-3 -8 -1 -15 4 -15 13 0 22 18 11 24 -5 3 -11 -1 -15 -9z"/>
<path d="M9551 4011 c-9 -6 -11 -14 -4 -26 9 -15 11 -14 15 9 3 14 5 26 4 26
0 0 -7 -4 -15 -9z"/>
<path d="M9860 4000 c0 -5 5 -10 11 -10 5 0 7 5 4 10 -3 6 -8 10 -11 10 -2 0
-4 -4 -4 -10z"/>
<path d="M9253 3984 c-7 -7 -13 -15 -13 -18 0 -9 34 1 37 11 6 18 -11 22 -24
7z"/>
<path d="M9818 3993 c6 -2 18 -2 25 0 6 3 1 5 -13 5 -14 0 -19 -2 -12 -5z"/>
<path d="M9239 3911 c12 -22 68 -44 76 -30 5 8 -2 10 -30 9 -11 -1 -33 25 -28
33 2 4 -3 7 -12 7 -12 0 -14 -4 -6 -19z"/>
<path d="M9870 3880 c0 -6 7 -10 15 -10 8 0 15 2 15 4 0 2 -7 6 -15 10 -8 3
-15 1 -15 -4z"/>
<path d="M9277 3859 c7 -7 15 -10 18 -7 3 3 -2 9 -12 12 -14 6 -15 5 -6 -5z"/>
<path d="M9277 3819 c7 -7 15 -10 18 -7 3 3 -2 9 -12 12 -14 6 -15 5 -6 -5z"/>
<path d="M9217 3780 c-3 -11 -1 -20 5 -20 5 0 6 -4 3 -10 -3 -5 -1 -10 5 -10
6 0 8 10 4 28 -9 35 -10 37 -17 12z"/>
<path d="M9437 3759 c7 -7 15 -10 18 -7 3 3 -2 9 -12 12 -14 6 -15 5 -6 -5z"/>
<path d="M9290 3749 c0 -5 5 -7 10 -4 6 3 10 8 10 11 0 2 -4 4 -10 4 -5 0 -10
-5 -10 -11z"/>
<path d="M9823 3715 c-3 -9 -3 -18 -1 -21 3 -3 8 4 11 16 6 23 -1 27 -10 5z"/>
<path d="M9490 3699 c0 -5 5 -7 10 -4 6 3 10 8 10 11 0 2 -4 4 -10 4 -5 0 -10
-5 -10 -11z"/>
</g>
</svg>
